<svg width="140" height="43" viewBox="0 0 260 43" fill="none" xmlns="http://www.w3.org/2000/svg">
<path d="M11.86 0.52L11.86 0.52L11.86 0.52Q8.53 0.52 8.22-4.21L8.22-4.21L3.74-4.21L3.74-4.21Q3.22-3.02 2.86-1.98L2.86-1.98L2.18 0L-1.46 0L6.73-17.16L12.32-17.16L13.42-4.52L13.42-4.52Q13.68-1.79 14.72-0.99L14.72-0.99L14.72-0.99Q13.96 0.52 11.86 0.52ZM5.98-9.41L4.55-6.11L8.14-6.11L7.83-12.79L7.83-13.49L5.98-9.41ZM27.22 0.52L27.22 0.52L27.22 0.52Q24.08 0.52 24.08-1.92L24.08-1.92L24.08-1.92Q24.10-2.60 24.31-3.74L24.31-3.74L24.78-6.14L24.78-6.14Q25.48-9.52 25.48-10.27L25.48-10.27L25.48-10.27Q25.48-11.78 24.60-11.78L24.60-11.78L24.60-11.78Q23.11-11.78 22.33-7.90L22.33-7.90L20.80 0L15.57 0.52L18.28-13.29L22.54-13.78L22.13-11.23L22.13-11.23Q23.35-13.78 27.09-13.78L27.09-13.78L27.09-13.78Q28.91-13.78 29.68-13.01L29.68-13.01L29.68-13.01Q30.45-12.25 30.45-10.53L30.45-10.53L30.45-10.53Q30.45-8.92 29.61-5.15L29.61-5.15L29.61-5.15Q29.22-3.46 29.22-2.82L29.22-2.82L29.22-2.82Q29.22-2.18 29.58-1.82L29.58-1.82L29.58-1.82Q29.93-1.46 30.45-1.40L30.45-1.40L30.45-1.40Q30.19-0.52 29.29 0L29.29 0L29.29 0Q28.39 0.52 27.22 0.52ZM40.72-13.78L40.72-13.78L40.72-13.78Q41.65-13.78 42.38-13.57L42.38-13.57L42.38-13.57Q42.41-13.68 42.46-13.96L42.46-13.96L42.59-14.77L42.59-14.77Q42.69-15.29 42.85-16.15L42.85-16.15L43.26-18.20L48.44-18.72L45.55-3.64L45.55-3.64Q45.53-3.48 45.53-3.22L45.53-3.22L45.53-2.81L45.53-2.81Q45.53-2.24 45.81-1.81L45.81-1.81L45.81-1.81Q46.10-1.38 46.57-1.38L46.57-1.38L46.57-1.38Q46.05-0.16 44.46 0.36L44.46 0.36L44.46 0.36Q43.91 0.52 43.15 0.52L43.15 0.52L43.15 0.52Q42.38 0.52 41.68 0.12L41.68 0.12L41.68 0.12Q40.98-0.29 40.77-0.96L40.77-0.96L40.77-0.96Q40.35-0.29 39.52 0.12L39.52 0.12L39.52 0.12Q38.69 0.52 37.48 0.52L37.48 0.52L37.48 0.52Q36.27 0.52 35.27 0.21L35.27 0.21L35.27 0.21Q34.27-0.10 33.64-0.78L33.64-0.78L33.64-0.78Q32.50-2.11 32.50-5.12L32.50-5.12L32.50-5.12Q32.50-9.02 34.79-11.39L34.79-11.39L34.79-11.39Q37.08-13.78 40.72-13.78ZM40.53-12.22L40.53-12.22L40.53-12.22Q39.57-12.22 39.05-11.18L39.05-11.18L39.05-11.18Q38.53-10.14 38.00-7.57L38.00-7.57L38.00-7.57Q37.47-4.99 37.47-2.68L37.47-2.68L37.47-2.68Q37.47-1.09 38.40-1.09L38.40-1.09L38.40-1.09Q39.23-1.09 39.82-1.92L39.82-1.92L39.82-1.92Q40.40-2.76 40.64-4.13L40.64-4.13L42.04-11.75L42.04-11.75Q41.50-12.22 40.53-12.22ZM49.91-0.78L49.91-0.78L49.91-0.78Q49.30-1.46 49.02-2.52L49.02-2.52L49.02-2.52Q48.75-3.59 48.75-5.33L48.75-5.33L48.75-5.33Q48.75-7.07 49.35-8.66L49.35-8.66L49.35-8.66Q49.95-10.24 51.04-11.39L51.04-11.39L51.04-11.39Q53.27-13.78 56.97-13.78L56.97-13.78L56.97-13.78Q58.29-13.78 59.25-13.34L59.25-13.34L63.70-13.78L61.78-3.64L61.78-3.64Q61.70-3.33 61.70-2.76L61.70-2.76L61.70-2.76Q61.70-2.18 62.05-1.82L62.05-1.82L62.05-1.82Q62.40-1.46 62.92-1.40L62.92-1.40L62.92-1.40Q62.66-0.52 61.71 0L61.71 0L61.71 0Q60.76 0.52 59.70 0.52L59.70 0.52L59.70 0.52Q58.63 0.52 57.92 0.12L57.92 0.12L57.92 0.12Q57.20-0.29 56.99-0.96L56.99-0.96L56.99-0.96Q56.58-0.31 55.69 0.10L55.69 0.10L55.69 0.10Q54.81 0.52 53.63 0.52L53.63 0.52L53.63 0.52Q52.44 0.52 51.48 0.21L51.48 0.21L51.48 0.21Q50.52-0.10 49.91-0.78ZM55.39-11.34L55.39-11.34L55.39-11.34Q55.09-10.87 54.83-10.08L54.83-10.08L54.83-10.08Q54.57-9.28 54.15-7.16L54.15-7.16L54.15-7.16Q53.72-5.04 53.72-3.54L53.72-3.54L53.72-3.54Q53.72-2.03 53.95-1.59L53.95-1.59L53.95-1.59Q54.18-1.14 54.60-1.14L54.60-1.14L54.60-1.14Q55.43-1.14 56.04-1.94L56.04-1.94L56.04-1.94Q56.65-2.73 56.89-4.13L56.89-4.13L58.27-11.75L58.27-11.75Q57.72-12.22 57.08-12.22L57.08-12.22L57.08-12.22Q56.45-12.22 56.07-12.01L56.07-12.01L56.07-12.01Q55.69-11.80 55.39-11.34ZM80.60-12.01L80.60-12.01L80.60-12.01Q80.99-12.79 80.99-13.52L80.99-13.52L80.99-13.52Q80.99-14.25 80.91-14.65L80.91-14.65L80.91-14.65Q80.83-15.05 80.65-15.37L80.65-15.37L80.65-15.37Q80.26-16.04 79.48-16.04L79.48-16.04L79.48-16.04Q78.52-16.04 77.74-15.34L77.74-15.34L77.74-15.34Q76.91-14.61 76.91-13.47L76.91-13.47L76.91-13.47Q76.91-12.74 77.42-12.18L77.42-12.18L77.42-12.18Q77.92-11.62 78.70-11.10L78.70-11.10L78.70-11.10Q79.48-10.58 80.37-10.06L80.37-10.06L80.37-10.06Q81.25-9.54 82.03-8.92L82.03-8.92L82.03-8.92Q83.82-7.49 83.82-5.56L83.82-5.56L83.82-5.56Q83.82-4.26 83.14-3.16L83.14-3.16L83.14-3.16Q82.45-2.05 81.30-1.25L81.30-1.25L81.30-1.25Q78.81 0.52 75.50 0.52L75.50 0.52L75.50 0.52Q72.83 0.52 71.45-0.35L71.45-0.35L71.45-0.35Q70.07-1.22 70.07-2.55L70.07-2.55L70.07-2.55Q70.07-4.91 71.92-5.51L71.92-5.51L71.92-5.51Q72.44-5.69 73.23-5.69L73.23-5.69L73.23-5.69Q74.02-5.69 74.93-5.36L74.93-5.36L74.93-5.36Q74.52-4.29 74.52-3.33L74.52-3.33L74.52-3.33Q74.52-1.25 76.00-1.25L76.00-1.25L76.00-1.25Q76.96-1.25 77.75-1.95L77.75-1.95L77.75-1.95Q78.55-2.65 78.55-3.45L78.55-3.45L78.55-3.45Q78.55-4.24 78.04-4.81L78.04-4.81L78.04-4.81Q77.53-5.38 76.78-5.84L76.78-5.84L76.78-5.84Q76.02-6.29 75.15-6.73L75.15-6.73L75.15-6.73Q74.28-7.18 73.53-7.80L73.53-7.80L73.53-7.80Q71.76-9.23 71.76-11.52L71.76-11.52L71.76-11.52Q71.76-13.00 72.49-14.16L72.49-14.16L72.49-14.16Q73.22-15.31 74.39-16.09L74.39-16.09L74.39-16.09Q76.73-17.68 79.60-17.68L79.60-17.68L79.60-17.68Q82.47-17.68 83.86-16.82L83.86-16.82L83.86-16.82Q85.25-15.96 85.25-14.51L85.25-14.51L85.25-14.51Q85.25-13.23 84.27-12.43L84.27-12.43L84.27-12.43Q83.41-11.75 82.37-11.75L82.37-11.75L82.37-11.75Q81.33-11.75 80.60-12.01ZM98.88-2.89L98.88-2.89L98.88-2.89Q98.88-1.74 100.05-1.40L100.05-1.40L100.05-1.40Q99.76-0.44 98.64 0.08L98.64 0.08L98.64 0.08Q97.71 0.52 96.68 0.52L96.68 0.52L96.68 0.52Q95.65 0.52 95.12 0.25L95.12 0.25L95.12 0.25Q94.59-0.03 94.30-0.47L94.30-0.47L94.30-0.47Q93.83-1.14 93.83-2.42L93.83-2.42L93.83-2.42Q93.83-3.17 94.25-5.25L94.25-5.25L94.61-7.23L94.61-7.23Q95.06-9.49 95.06-10.32L95.06-10.32L95.06-10.32Q95.06-11.78 94.25-11.78L94.25-11.78L94.25-11.78Q93.24-11.78 92.59-10.30L92.59-10.30L92.59-10.30Q92.33-9.72 92.14-8.87L92.14-8.87L90.38 0L85.15 0.52L88.82-18.20L94.04-18.72L93.83-17.68L93.83-17.68Q93.11-13.68 92.48-12.32L92.48-12.32L92.48-12.32Q93.94-13.78 96.62-13.78L96.62-13.78L96.62-13.78Q99.45-13.78 99.97-11.91L99.97-11.91L99.97-11.91Q100.15-11.31 100.15-10.79L100.15-10.79L100.15-10.79Q100.15-10.27 100.11-9.87L100.11-9.87L100.11-9.87Q100.07-9.46 99.94-8.74L99.94-8.74L99.61-6.86L99.01-3.93L99.01-3.93Q98.88-3.33 98.88-2.89ZM107.82 0.52L107.82 0.52L107.82 0.52Q102.10 0.52 102.10-4.86L102.10-4.86L102.10-4.86Q102.10-8.68 104.21-11.15L104.21-11.15L104.21-11.15Q106.44-13.78 110.32-13.78L110.32-13.78L110.32-13.78Q113.13-13.78 114.56-12.48L114.56-12.48L114.56-12.48Q115.99-11.18 115.99-8.45L115.99-8.45L115.99-8.45Q115.99-4.29 113.75-1.87L113.75-1.87L113.75-1.87Q111.57 0.52 107.82 0.52ZM108.50-10.79L108.50-10.79L108.50-10.79Q108.19-10.09 107.94-9.04L107.94-9.04L107.94-9.04Q107.69-7.98 107.38-6.32L107.38-6.32L107.38-6.32Q107.07-4.65 107.07-2.60L107.07-2.60L107.07-2.60Q107.07-1.92 107.29-1.48L107.29-1.48L107.29-1.48Q107.51-1.04 108.11-1.04L108.11-1.04L108.11-1.04Q108.71-1.04 109.08-1.33L109.08-1.33L109.08-1.33Q109.46-1.61 109.75-2.29L109.75-2.29L109.75-2.29Q110.27-3.48 110.68-5.71L110.68-5.71L110.68-5.71Q111.10-7.93 111.14-8.89L111.14-8.89L111.14-8.89Q111.18-9.85 111.18-10.57L111.18-10.57L111.18-10.57Q111.18-11.28 110.97-11.75L110.97-11.75L110.97-11.75Q110.76-12.22 110.18-12.22L110.18-12.22L110.18-12.22Q109.59-12.22 109.20-11.86L109.20-11.86L109.20-11.86Q108.81-11.49 108.50-10.79ZM129.64-1.78L129.64-1.78L129.64-1.78Q128.54-0.68 127.05-0.08L127.05-0.08L127.05-0.08Q125.55 0.52 124.07 0.52L124.07 0.52L124.07 0.52Q122.59 0.52 122.07 0.26L122.07 0.26L121.26 4.68L115.99 5.20L119.57-13.26L123.81-13.70L123.47-11.91L123.47-11.91Q124.57-13.75 126.83-13.75L126.83-13.75L126.83-13.75Q129.38-13.75 130.73-12.12L130.73-12.12L130.73-12.12Q131.92-10.63 131.92-8.37L131.92-8.37L131.92-8.37Q131.92-6.11 131.33-4.50L131.33-4.50L131.33-4.50Q130.73-2.89 129.64-1.78ZM123.76-9.07L122.38-1.46L122.38-1.46Q122.93-0.99 123.60-0.99L123.60-0.99L123.60-0.99Q124.28-0.99 124.67-1.25L124.67-1.25L124.67-1.25Q125.06-1.51 125.35-2.03L125.35-2.03L125.35-2.03Q126.13-3.43 126.75-7.70L126.75-7.70L126.75-7.70Q126.93-8.94 126.93-10.17L126.93-10.17L126.93-10.17Q126.93-11.39 126.66-11.78L126.66-11.78L126.66-11.78Q126.39-12.17 125.87-12.17L125.87-12.17L125.87-12.17Q124.28-12.17 123.76-9.07L123.76-9.07ZM145.60-1.78L145.60-1.78L145.60-1.78Q144.51-0.68 143.01-0.08L143.01-0.08L143.01-0.08Q141.52 0.52 140.04 0.52L140.04 0.52L140.04 0.52Q138.55 0.52 138.03 0.26L138.03 0.26L137.23 4.68L131.95 5.20L135.54-13.26L139.78-13.70L139.44-11.91L139.44-11.91Q140.53-13.75 142.79-13.75L142.79-13.75L142.79-13.75Q145.34-13.75 146.69-12.12L146.69-12.12L146.69-12.12Q147.89-10.63 147.89-8.37L147.89-8.37L147.89-8.37Q147.89-6.11 147.29-4.50L147.29-4.50L147.29-4.50Q146.69-2.89 145.60-1.78ZM139.72-9.07L138.35-1.46L138.35-1.46Q138.89-0.99 139.57-0.99L139.57-0.99L139.57-0.99Q140.24-0.99 140.63-1.25L140.63-1.25L140.63-1.25Q141.02-1.51 141.31-2.03L141.31-2.03L141.31-2.03Q142.09-3.43 142.71-7.70L142.71-7.70L142.71-7.70Q142.90-8.94 142.90-10.17L142.90-10.17L142.90-10.17Q142.90-11.39 142.62-11.78L142.62-11.78L142.62-11.78Q142.35-12.17 141.83-12.17L141.83-12.17L141.83-12.17Q140.24-12.17 139.72-9.07L139.72-9.07ZM155.69-1.43L155.69-1.43L155.69-1.43Q154.88 0.52 152.31 0.52L152.31 0.52L152.31 0.52Q150.98 0.52 150.15-0.39L150.15-0.39L150.15-0.39Q149.45-1.20 149.45-2.00L149.45-2.00L149.45-2.00Q149.45-4.11 150.41-8.22L150.41-8.22L151.37-13.26L156.65-13.78L155.06-5.56L155.06-5.56Q154.62-3.64 154.62-2.96L154.62-2.96L154.62-2.96Q154.62-1.48 155.69-1.43ZM151.84-16.87L151.84-16.87L151.84-16.87Q151.84-17.89 152.69-18.43L152.69-18.43L152.69-18.43Q153.53-18.98 154.75-18.98L154.75-18.98L154.75-18.98Q155.97-18.98 156.72-18.43L156.72-18.43L156.72-18.43Q157.46-17.89 157.46-16.87L157.46-16.87L157.46-16.87Q157.46-15.86 156.64-15.34L156.64-15.34L156.64-15.34Q155.82-14.82 154.60-14.82L154.60-14.82L154.60-14.82Q153.37-14.82 152.61-15.34L152.61-15.34L152.61-15.34Q151.84-15.86 151.84-16.87ZM168.90 0.52L168.90 0.52L168.90 0.52Q165.75 0.52 165.75-1.92L165.75-1.92L165.75-1.92Q165.78-2.60 165.98-3.74L165.98-3.74L166.45-6.14L166.45-6.14Q167.15-9.52 167.15-10.27L167.15-10.27L167.15-10.27Q167.15-11.78 166.27-11.78L166.27-11.78L166.27-11.78Q164.79-11.78 164.01-7.90L164.01-7.90L162.47 0L157.25 0.52L159.95-13.29L164.22-13.78L163.80-11.23L163.80-11.23Q165.02-13.78 168.77-13.78L168.77-13.78L168.77-13.78Q170.59-13.78 171.35-13.01L171.35-13.01L171.35-13.01Q172.12-12.25 172.12-10.53L172.12-10.53L172.12-10.53Q172.12-8.92 171.29-5.15L171.29-5.15L171.29-5.15Q170.90-3.46 170.90-2.82L170.90-2.82L170.90-2.82Q170.90-2.18 171.25-1.82L171.25-1.82L171.25-1.82Q171.60-1.46 172.12-1.40L172.12-1.40L172.12-1.40Q171.86-0.52 170.96 0L170.96 0L170.96 0Q170.07 0.52 168.90 0.52ZM176.05-10.87L176.05-10.87L176.05-10.87Q176.93-12.12 178.27-12.95L178.27-12.95L178.27-12.95Q179.61-13.78 181.25-13.78L181.25-13.78L181.25-13.78Q182.88-13.78 183.66-13.26L183.66-13.26L188.76-13.78L186.99-3.80L186.99-3.80Q186.08 1.30 184.16 3.30L184.16 3.30L184.16 3.30Q182.31 5.20 178.72 5.20L178.72 5.20L178.72 5.20Q175.99 5.20 174.43 4.34L174.43 4.34L174.43 4.34Q172.87 3.48 172.87 2.05L172.87 2.05L172.87 2.05Q172.87 0.99 173.68 0.38L173.68 0.38L173.68 0.38Q174.49-0.23 175.73-0.23L175.73-0.23L175.73-0.23Q176.83-0.23 177.66 0.26L177.66 0.26L177.66 0.26Q178.15 0.52 178.39 0.88L178.39 0.88L178.39 0.88Q177.79 1.40 177.79 2.26L177.79 2.26L177.79 2.26Q177.79 3.38 178.83 3.38L178.83 3.38L178.83 3.38Q180.57 3.38 181.56-0.73L181.56-0.73L181.56-0.73Q181.84-1.85 182.08-2.96L182.08-2.96L182.08-2.96Q180.91-1.53 178.26-1.53L178.26-1.53L178.26-1.53Q176.41-1.53 175.34-2.42L175.34-2.42L175.34-2.42Q174.28-3.30 174.28-5.38L174.28-5.38L174.28-5.38Q174.28-6.68 174.72-8.15L174.72-8.15L174.72-8.15Q175.16-9.62 176.05-10.87ZM179.43-5.30L179.43-5.30L179.43-5.30Q179.43-3.54 180.34-3.54L180.34-3.54L180.34-3.54Q180.96-3.54 181.56-4.21L181.56-4.21L181.56-4.21Q182.03-4.76 182.21-5.56L182.21-5.56L183.53-12.25L183.53-12.25Q183.40-12.27 183.27-12.32L183.27-12.32L183.27-12.32Q183.01-12.43 182.68-12.43L182.68-12.43L182.68-12.43Q181.09-12.43 180.15-9.83L180.15-9.83L180.15-9.83Q179.43-7.80 179.43-5.30Z" fill="white"/>
<path fill-rule="evenodd" clip-rule="evenodd" d="M86.4269 37.2638C80.0757 40.6552 70.87 42.4646 62.944 42.4646C51.8305 42.4646 41.8255 39.4868 34.2563 34.5343C33.6617 34.1447 34.1945 33.614 34.9081 33.9173C43.0767 37.3604 53.1769 39.4317 63.6101 39.4317C70.6464 39.4317 78.3868 38.3771 85.504 36.1886C86.5791 35.8577 87.4783 36.6986 86.4269 37.2638Z" fill="#FF9900"/>
<path fill-rule="evenodd" clip-rule="evenodd" d="M89.0674 35.0754C88.2586 34.324 83.7008 34.7203 81.6551 34.8961C81.0319 34.9513 80.9368 34.5583 81.4981 34.2758C85.1281 32.425 91.0845 32.9592 91.779 33.5796C92.4736 34.2034 91.5983 38.5287 88.1871 40.5931C87.6638 40.9102 87.1642 40.7413 87.3974 40.3208C88.1634 38.9354 89.8808 35.8301 89.0674 35.0754Z" fill="#FF9900"/>
</svg>
